<svg width="139" height="48" viewBox="0 0 139 48" fill="none" xmlns="http://www.w3.org/2000/svg">
<path d="M33.8281 37.8438H0.820312V32.8828H14.0234V25.1094H20.2734V32.8828H33.8281V37.8438ZM1.28906 21.5547C4.23177 21.125 6.6276 20.3047 8.47656 19.0938C10.3255 17.8698 11.6536 16.4701 12.4609 14.8945C13.2812 13.306 13.6979 11.6849 13.7109 10.0312V7.60938H20.4688V10.0312C20.4557 11.7109 20.8529 13.3451 21.6602 14.9336C22.4805 16.5091 23.8281 17.9023 25.7031 19.1133C27.5781 20.3112 30.013 21.125 33.0078 21.5547L30.3906 26.75C27.1745 26.1901 24.4531 25.194 22.2266 23.7617C20.013 22.3294 18.3008 20.5586 17.0898 18.4492C15.8789 20.5716 14.1667 22.3555 11.9531 23.8008C9.7526 25.2461 7.07031 26.2292 3.90625 26.75L1.28906 21.5547ZM64.4922 10.2656C64.4922 12.2318 64.4336 14.0156 64.3164 15.6172C64.2122 17.2188 63.9453 18.9766 63.5156 20.8906L57.2656 20.2266C57.5911 18.7682 57.819 17.4271 57.9492 16.2031C58.0924 14.9661 58.1771 13.7422 58.2031 12.5312H39.0625V7.6875H64.4922V10.2656ZM35.5078 22.4922H46.9531V16.1641H53.1641V22.4922H68.2422V27.4922H35.5078V22.4922ZM39.0625 30.0703H45.3516V36.3594H65.2344V41.3594H39.0625V30.0703ZM102.969 37.8438H69.9609V32.8828H83.1641V25.1094H89.4141V32.8828H102.969V37.8438ZM70.4297 21.5547C73.3724 21.125 75.7682 20.3047 77.6172 19.0938C79.4661 17.8698 80.7943 16.4701 81.6016 14.8945C82.4219 13.306 82.8385 11.6849 82.8516 10.0312V7.60938H89.6094V10.0312C89.5964 11.7109 89.9935 13.3451 90.8008 14.9336C91.6211 16.5091 92.9688 17.9023 94.8438 19.1133C96.7188 20.3112 99.1536 21.125 102.148 21.5547L99.5312 26.75C96.3151 26.1901 93.5938 25.194 91.3672 23.7617C89.1536 22.3294 87.4414 20.5586 86.2305 18.4492C85.0195 20.5716 83.3073 22.3555 81.0938 23.8008C78.8932 25.2461 76.2109 26.2292 73.0469 26.75L70.4297 21.5547ZM133.633 10.2656C133.633 12.2318 133.574 14.0156 133.457 15.6172C133.353 17.2188 133.086 18.9766 132.656 20.8906L126.406 20.2266C126.732 18.7682 126.96 17.4271 127.09 16.2031C127.233 14.9661 127.318 13.7422 127.344 12.5312H108.203V7.6875H133.633V10.2656ZM104.648 22.4922H116.094V16.1641H122.305V22.4922H137.383V27.4922H104.648V22.4922ZM108.203 30.0703H114.492V36.3594H134.375V41.3594H108.203V30.0703Z" fill="white"/>
</svg>
